#!OML:ASF Y:\EmotionMaleHayes\Project 1\Capture day 1\Session 1\Male1.ASF
:FULLY-SPECIFIED
:DEGREES
106
root -18.2796 15.9288 -0.157953 100.223 80.2845 97.912
lowerback 16.7279 1.45793 -10.9232
upperback 2.34167 -0.0850617 -4.65674
thorax -6.84033 0.310703 1.15356
lowerneck -29.5438 -1.15083 -1.6351
upperneck 15.1355 -1.74505 3.91912
head 9.60725 -0.397901 1.37805
rclavicle 1.09332e-014 -1.11319e-014
rhumerus -54.8878 22.1621 -103.443
rradius 102.834
rwrist -20.221
rhand -27.4989 -18.5165
rfingers 7.12502
rthumb -0.901962 -48.4944
lclavicle 1.09332e-014 -1.11319e-014
lhumerus -56.5306 -29.1219 91.1276
lradius 90.2126
lwrist 20.3877
lhand -42.8555 -33.9344
lfingers 7.12502
lthumb -15.7192 -4.5528
rfemur 22.8421 7.03867 29.8692
rtibia 57.5543
rfoot 2.27745 -14.7517
rtoes 28.8782
lfemur -25.2635 -0.255164 -36.5964
ltibia 42.7342
lfoot -18.0775 4.0945
ltoes -3.68309
107
root -17.8425 15.8297 -0.166193 107.595 80.1357 105.572
lowerback 16.7053 0.904299 -10.9634
upperback 3.0383 -0.701936 -4.45478
thorax -5.99743 -0.0279094 1.54313
lowerneck -30.0127 -1.13642 -1.88351
upperneck 14.4026 -1.63934 4.19492
head 9.42147 -0.32473 1.5305
rclavicle -3.18055e-015 6.36111e-015
rhumerus -55.6713 21.2269 -102.446
rradius 101.076
rwrist -19.0048
rhand -28.2141 -19.5237
rfingers 7.12502
rthumb -1.59265 -49.4975
lclavicle -3.18055e-015 6.36111e-015
lhumerus -50.973 -29.8599 90.1839
lradius 89.6723
lwrist 20.7022
lhand -43.2649 -36.9909
lfingers 7.12502
lthumb -16.1135 -7.64075
rfemur 22.8421 7.03867 29.8692
rtibia 57.5543
rfoot 2.27745 -14.7517
rtoes 28.8782
lfemur -23.3026 -0.900072 -36.6673
ltibia 43.1843
lfoot -19.6854 3.55863
ltoes -3.18516
108
root -17.4164 15.7808 -0.181985 111.393 78.9949 108.992
lowerback 16.2333 0.4813 -12.1869
upperback 3.4775 -1.30921 -4.48654
thorax -5.15743 -0.340797 2.31061
lowerneck -30.2864 -1.10494 -2.11993
upperneck 13.676 -1.52852 4.54355
head 9.20778 -0.24 1.70637
rclavicle 3.18055e-015 2.3059e-014
rhumerus -56.6404 20.5533 -101.313
rradius 99.475
rwrist -18.8437
rhand -28.6983 -20.0429
rfingers 7.12502
rthumb -2.06037 -50.0127
lclavicle 3.18055e-015 2.3059e-014
lhumerus -45.657 -30.3757 89.115
lradius 89.6975
lwrist 21.2502
lhand -43.4384 -39.3113
lfingers 7.12502
lthumb -16.2805 -9.97482
rfemur 22.8421 7.03867 29.8692
rtibia 57.5543
rfoot 2.27745 -14.7517
rtoes 28.8782
lfemur -21.7676 -1.4054 -37.9367
ltibia 43.3199
lfoot -21.1889 3.04038
ltoes -0.109632
109
root -16.9887 15.7622 -0.196378 112.536 78.3154 109.731
lowerback 16.1392 0.199085 -12.9254
upperback 3.49734 -1.77473 -4.71168
thorax -5.00204 -0.557473 2.56229
lowerneck -30.6074 -1.0057 -2.06129
upperneck 13.7431 -1.50482 4.98287
head 9.28708 -0.16351 1.86039
rclavicle -4.17448e-015 1.19271e-014
rhumerus -58.5825 19.7392 -100.99
rradius 98.2874
rwrist -18.5014
rhand -29.936 -20.4377
rfingers 7.12502
rthumb -3.2557 -50.3926
lclavicle -4.17448e-015 1.19271e-014
lhumerus -41.2342 -30.7831 87.9019
lradius 90.2779
lwrist 21.2321
lhand -43.0974 -40.7562
lfingers 7.12502
lthumb -15.9522 -11.3931
rfemur 22.8421 7.03867 29.8692
rtibia 57.5543
rfoot 2.27745 -14.7517
rtoes 28.8782
lfemur -20.1551 -1.57669 -38.7494
ltibia 43.2678
lfoot -22.7542 2.89188
ltoes 0.520789
110
root -16.566 15.7571 -0.205203 111.595 77.6252 108.557
lowerback 16.1214 0.116438 -13.9728
upperback 3.55014 -2.03006 -4.95839
thorax -4.85994 -0.665959 2.91372
lowerneck -30.7867 -0.897889 -1.88786
upperneck 13.8163 -1.50122 5.32616
head 9.34568 -0.103297 1.95849
rclavicle 8.15017e-015 6.36111e-015
rhumerus -60.5355 18.9545 -100.756
rradius 97.4874
rwrist -19.2559
rhand -30.1653 -19.1861
rfingers 7.12502
rthumb -3.47707 -49.1375
lclavicle 8.15017e-015 6.36111e-015
lhumerus -36.9295 -30.8925 86.7821
lradius 91.117
lwrist 20.0261
lhand -42.4782 -40.9641
lfingers 7.12502
lthumb -15.3558 -11.5543
rfemur 22.8421 7.03867 29.8692
rtibia 57.5543
rfoot 2.27745 -14.7517
rtoes 28.8782
lfemur -18.317 -1.62985 -39.6279
ltibia 43.1147
lfoot -24.398 2.95084
ltoes -1.36695
111
root -16.1533 15.7559 -0.207268 109.568 77.317 106.503
lowerback 16.4615 0.192396 -14.8665
upperback 3.55243 -2.12982 -5.0807
thorax -4.98853 -0.685639 3.28835
lowerneck -30.8756 -0.815717 -1.83316
upperneck 13.8246 -1.49422 5.72946
head 9.36876 -0.0423544 2.09653
rclavicle -6.95746e-015 -3.02153e-014
rhumerus -62.5499 18.2413 -100.54
rradius 96.9654
rwrist -20.198
rhand -29.5974 -19.3058
rfingers 7.12502
rthumb -2.92867 -49.2654
lclavicle -6.95746e-015 -3.02153e-014
lhumerus -32.6781 -30.5482 85.9282
lradius 91.8387
lwrist 18.187
lhand -41.9096 -42.3895
lfingers 7.12502
lthumb -14.8081 -12.9386
rfemur 22.8421 7.03867 29.8692
rtibia 57.5543
rfoot 2.27745 -14.7517
rtoes 28.8782
lfemur -16.3 -1.14615 -40.0134
ltibia 42.6833
lfoot -25.8293 2.58695
ltoes -1.44895
112
root -15.7176 15.7824 -0.197425 111.121 77.1276 108.567
lowerback 16.9933 0.0584041 -15.5372
upperback 3.88604 -2.44499 -4.89666
thorax -4.80892 -0.845034 3.91823
lowerneck -31.0544 -0.685611 -1.80528
upperneck 13.8819 -1.35687 5.85709
head 9.41302 0.0432697 2.16288
rclavicle -2.08724e-014 -6.20208e-014
rhumerus -64.4919 17.7893 -100.118
rradius 96.6753
rwrist -20.7855
rhand -28.7098 -18.7771
rfingers 7.12502
rthumb -2.07147 -48.7467
lclavicle -2.08724e-014 -6.20208e-014
lhumerus -28.1737 -29.6862 85.3323
lradius 92.7063
lwrist 15.8614
lhand -41.3465 -42.946
lfingers 7.12502
lthumb -14.2655 -13.456
rfemur 22.8421 7.03867 29.8692
rtibia 57.5543
rfoot 2.27745 -14.7517
rtoes 28.8782
lfemur -13.3908 -0.511993 -39.678
ltibia 41.7905
lfoot -26.8097 1.41044
ltoes 0.178822
113
root -15.2886 15.8188 -0.211972 110.258 77.2652 107.688
lowerback 17.6892 0.0233438 -15.6477
upperback 3.49799 -2.7211 -4.91493
thorax -5.56526 -0.912431 4.03188
lowerneck -30.6416 -0.505058 -1.77532
upperneck 14.0277 -1.20382 6.15878
head 9.3989 0.148222 2.28894
rclavicle -9.74045e-015 -3.4191e-014
rhumerus -67.4561 17.0709 -100.17
rradius 96.8606
rwrist -21.0356
rhand -27.9944 -17.7613
rfingers 7.12502
rthumb -1.38054 -47.7366
lclavicle -9.74045e-015 -3.4191e-014
lhumerus -25.1623 -28.8338 85.2566
lradius 93.962
lwrist 13.5965
lhand -40.7263 -43.6561
lfingers 7.12502
lthumb -13.6679 -14.1249
rfemur 22.8421 7.03867 29.8692
rtibia 57.5543
rfoot 2.27745 -14.7517
rtoes 28.8782
lfemur -10.7635 -0.226969 -39.5324
ltibia 40.1715
lfoot -27.4905 1.33038
ltoes 0.227299
114
root -14.8915 15.8566 -0.191007 114.569 76.6925 111.468
lowerback 18.2457 -0.456922 -16.2578
upperback 3.08487 -3.63794 -4.77171
thorax -6.11176 -1.28762 4.72772
lowerneck -30.5125 -0.249536 -1.79751
upperneck 14.2009 -0.891789 6.29946
head 9.42808 0.307949 2.39463
rclavicle -2.3059e-014 5.725e-014
rhumerus -70.0093 16.6659 -100.024
rradius 97.1114
rwrist -21.2643
rhand -27.3793 -16.9689
rfingers 7.12502
rthumb -0.786407 -46.9472
lclavicle -2.3059e-014 5.725e-014
lhumerus -22.2916 -27.8774 85.2629
lradius 95.2752
lwrist 11.5072
lhand -40.6657 -45.0647
lfingers 7.12502
lthumb -13.6094 -15.5296
rfemur -26.9783 -12.0948 4.01802
rtibia 54.6297
rfoot -3.47302 -173.182
rtoes 14.3608
lfemur -8.97244 -0.729655 -39.54
ltibia 39.1006
lfoot -27.7182 0.91954
ltoes -2.06113
115
root -14.3114 15.9558 -0.259848 103.397 76.7583 100.926
lowerback 17.065 0.0217077 -17.1622
upperback 3.49356 -2.85431 -5.07444
thorax -5.12278 -0.98024 4.67965
lowerneck -30.6975 0.038596 -1.7803
upperneck 14.3413 -0.540127 6.418
head 9.49194 0.491344 2.49649
rclavicle -1.13307e-014 -6.36111e-014
rhumerus -72.1754 16.5597 -99.899
rradius 97.3183
rwrist -21.2269
rhand -26.8655 -16.4474
rfingers 7.12502
rthumb -0.290151 -46.427
lclavicle -1.13307e-014 -6.36111e-014
lhumerus -19.5143 -27.002 85.146
lradius 96.7935
lwrist 9.8694
lhand -40.8465 -45.6616
lfingers 7.12502
lthumb -13.7837 -16.1382
rfemur -29.0743 -9.04051 2.76568
rtibia 56.5559
rfoot -3.20749 -175.273
rtoes 13.5538
lfemur -4.22845 1.03046 -40.3851
ltibia 35.2499
lfoot -27.7193 1.94542
ltoes -4.34345
